<?xml version="1.0" encoding="UTF-8" standalone="no"?>
<!-- Generator: Adobe Illustrator 16.0.0, SVG Export Plug-In . SVG Version: 6.00 Build 0)  -->

<svg
   xmlns:dc="http://purl.org/dc/elements/1.1/"
   xmlns:cc="http://creativecommons.org/ns#"
   xmlns:rdf="http://www.w3.org/1999/02/22-rdf-syntax-ns#"
   xmlns:svg="http://www.w3.org/2000/svg"
   xmlns="http://www.w3.org/2000/svg"
   xmlns:sodipodi="http://sodipodi.sourceforge.net/DTD/sodipodi-0.dtd"
   xmlns:inkscape="http://www.inkscape.org/namespaces/inkscape"
   version="1.1"
   id="Layer_1"
   x="0px"
   y="0px"
   width="26.06px"
   height="26.062px"
   viewBox="0 0 26.06 26.062"
   enable-background="new 0 0 26.06 26.062"
   xml:space="preserve"
   inkscape:version="0.91 r13725"
   sodipodi:docname="google_plus.svg"><metadata
     id="metadata9"><rdf:RDF><cc:Work
         rdf:about=""><dc:format>image/svg+xml</dc:format><dc:type
           rdf:resource="http://purl.org/dc/dcmitype/StillImage" /></cc:Work></rdf:RDF></metadata><defs
     id="defs7" /><sodipodi:namedview
     pagecolor="#ffffff"
     bordercolor="#666666"
     borderopacity="1"
     objecttolerance="10"
     gridtolerance="10"
     guidetolerance="10"
     inkscape:pageopacity="0"
     inkscape:pageshadow="2"
     inkscape:window-width="1366"
     inkscape:window-height="705"
     id="namedview5"
     showgrid="false"
     inkscape:zoom="9.0553295"
     inkscape:cx="-0.71880973"
     inkscape:cy="13.031"
     inkscape:window-x="-8"
     inkscape:window-y="-8"
     inkscape:window-maximized="1"
     inkscape:current-layer="Layer_1" /><path
     fill="#FF3C6D"
     d="M26.06,4.868v16.327c0,1.43-0.573,2.578-1.433,3.437c-0.858,0.858-2.004,1.431-3.434,1.431H4.869  c-1.433,0-2.577-0.572-3.438-1.431C0.573,23.773,0,22.625,0,21.195V4.868c0-1.431,0.573-2.577,1.432-3.437  C2.292,0.574,3.437,0,4.869,0h16.324c1.43,0,2.575,0.574,3.434,1.432C25.486,2.578,26.06,3.438,26.06,4.868z M14.607,4.868  l1.431-1.146h-4.582c-0.859,0-2.004,0.288-2.576,0.574C8.02,4.583,7.446,5.154,6.587,6.015C5.729,6.873,5.729,7.733,5.729,8.594  c0,1.145,0.285,2.004,1.144,2.576c0.86,0.574,1.719,1.146,2.579,1.146c0.285,0,0.572,0,0.858,0  c-0.286,0.285-0.286,0.572-0.286,0.858c0,0.572,0.286,1.146,0.572,1.72c-2.005,0-3.436,0.572-4.295,1.145  c-0.572,0.286-0.86,0.858-1.147,1.145c-0.285,0.289-0.571,1.146-0.571,1.719s0,0.859,0.286,1.434  c0.285,0.287,0.572,0.572,0.86,0.859c0.285,0.286,0.857,0.572,1.144,0.572c0.573,0.285,0.86,0.285,1.433,0.285  c0.574,0,0.859,0,1.432,0c0.573,0,1.432,0,2.005-0.285c0.573-0.286,1.433-0.572,2.006-0.859c0.571-0.285,1.146-0.86,1.432-1.434  c0.286-0.572,0.573-1.145,0.573-2.002c0-0.575,0-1.147-0.287-1.434c-0.286-0.572-0.572-0.859-0.858-1.145  c-0.288-0.287-0.573-0.574-0.859-0.861c-0.287-0.286-0.573-0.572-0.86-0.858c-0.285-0.286-0.285-0.573-0.285-0.858  c0-0.287,0-0.572,0.285-0.86c0.287-0.286,0.287-0.571,0.573-0.571c0.287,0,0.573-0.574,0.858-0.574c0.288,0,0.574-0.572,0.574-1.145  c0.286-0.287,0.286-0.86,0.286-1.433c0-0.573,0-1.146-0.286-1.719c-0.286-0.574-0.574-0.86-1.146-1.432h0.859V4.868z M14.034,18.33  c0,0.859-0.286,1.432-0.859,2.006c-0.572,0.572-1.433,0.572-2.291,0.572c-0.573,0-0.859,0-1.432-0.285  c-0.572,0-0.86-0.287-1.146-0.575c-0.286-0.286-0.859-0.573-0.859-0.858c-0.285-0.287-0.285-0.859-0.285-1.432  c0-0.574,0-0.86,0.285-1.433c0.287-0.286,0.573-0.573,1.146-0.858c0.573-0.287,0.86-0.287,1.433-0.287s0.859,0,1.432,0  c0.286,0,0.286,0,0.573,0c0,0,0.286,0,0.286,0.287c0,0.285,0.287,0.285,0.572,0.285c0.287,0,0.287,0,0.287,0.287  c0.286,0.286,0.286,0.286,0.286,0.286l0.287,0.286c0,0.286,0.286,0.286,0.286,0.572c0,0,0,0.289,0.285,0.574  C14.034,18.045,14.034,18.33,14.034,18.33z M12.888,9.166c0,0.572-0.285,1.145-0.572,1.719c-0.286,0.571-0.859,0.571-1.432,0.571  c-0.573,0-1.146-0.286-1.432-0.858c-0.572-0.574-0.86-1.146-0.86-1.719C8.306,8.306,8.306,7.733,8.306,7.16  c0-0.572,0.286-1.146,0.574-1.72c0.285-0.572,0.857-0.857,1.431-0.857s1.146,0.285,1.719,0.857c0.573,0.574,0.858,1.147,0.858,1.72  C12.603,8.02,12.888,8.594,12.888,9.166z M19.476,12.602h2.291v-1.146h-2.291v-2.29H18.33v2.29h-2.292v1.146h2.292v2.578h1.146  V12.602z"
     id="path3"
     style="fill:#c2cae8;fill-opacity:1" /></svg>