<?xml version="1.0" encoding="UTF-8" standalone="no"?>
<!-- Generator: Adobe Illustrator 16.0.0, SVG Export Plug-In . SVG Version: 6.00 Build 0)  -->

<svg
   xmlns:dc="http://purl.org/dc/elements/1.1/"
   xmlns:cc="http://creativecommons.org/ns#"
   xmlns:rdf="http://www.w3.org/1999/02/22-rdf-syntax-ns#"
   xmlns:svg="http://www.w3.org/2000/svg"
   xmlns="http://www.w3.org/2000/svg"
   xmlns:sodipodi="http://sodipodi.sourceforge.net/DTD/sodipodi-0.dtd"
   xmlns:inkscape="http://www.inkscape.org/namespaces/inkscape"
   version="1.1"
   id="Layer_1"
   x="0px"
   y="0px"
   width="26.637px"
   height="22.191px"
   viewBox="0 0 26.637 22.191"
   enable-background="new 0 0 26.637 22.191"
   xml:space="preserve"
   inkscape:version="0.91 r13725"
   sodipodi:docname="twitter.svg"><metadata
     id="metadata9"><rdf:RDF><cc:Work
         rdf:about=""><dc:format>image/svg+xml</dc:format><dc:type
           rdf:resource="http://purl.org/dc/dcmitype/StillImage" /></cc:Work></rdf:RDF></metadata><defs
     id="defs7" /><sodipodi:namedview
     pagecolor="#ffffff"
     bordercolor="#666666"
     borderopacity="1"
     objecttolerance="10"
     gridtolerance="10"
     guidetolerance="10"
     inkscape:pageopacity="0"
     inkscape:pageshadow="2"
     inkscape:window-width="1366"
     inkscape:window-height="705"
     id="namedview5"
     showgrid="false"
     inkscape:zoom="10.634942"
     inkscape:cx="1.6118068"
     inkscape:cy="11.0955"
     inkscape:window-x="-8"
     inkscape:window-y="-8"
     inkscape:window-maximized="1"
     inkscape:current-layer="Layer_1" /><path
     fill="#FF3C6D"
     d="M26.637,3.15c-0.859,1.146-1.719,2.006-2.865,2.865c0,0.286,0,0.286,0,0.571  c0,1.433-0.285,2.865-0.572,4.298c-0.286,1.432-1.146,2.863-2.006,4.295c-0.857,1.434-2.004,2.578-3.15,3.438  c-1.145,0.86-2.576,1.719-4.295,2.578c-1.719,0.574-3.438,0.859-5.442,0.859c-3.149,0-5.727-0.859-8.306-2.577  c0.287,0,0.86,0,1.432,0c2.578,0,4.87-0.86,6.874-2.292c-1.146,0-2.291-0.287-3.149-1.145c-0.859-0.574-1.72-1.72-2.006-2.578  c0.286,0,0.574,0,1.146,0s0.859,0,1.432-0.287c-1.146-0.285-2.292-0.859-3.149-2.005c-0.86-0.858-1.147-2.29-1.147-3.437l0,0  C2.292,8.02,3.15,8.307,4.01,8.307C3.15,7.734,2.579,7.162,2.292,6.302C2.004,5.443,1.719,4.584,1.719,3.725  c0-0.86,0.285-2.006,0.86-2.865c1.431,1.72,3.149,3.15,4.868,4.01c1.719,0.86,4.009,1.433,6.301,1.718c0-0.285,0-0.857,0-1.144  c0-1.434,0.572-2.864,1.719-3.725C16.611,0.574,17.758,0,19.189,0s2.863,0.574,4.01,1.719c1.146-0.285,2.291-0.572,3.438-1.432  C26.35,1.719,25.49,2.579,24.346,3.15C24.632,4.01,25.777,3.725,26.637,3.15z"
     id="path3"
     style="fill:#c2cae8;fill-opacity:1" /></svg>