<?xml version="1.0" encoding="UTF-8" standalone="no"?>
<!-- Generator: Adobe Illustrator 16.0.0, SVG Export Plug-In . SVG Version: 6.00 Build 0)  -->

<svg
   xmlns:dc="http://purl.org/dc/elements/1.1/"
   xmlns:cc="http://creativecommons.org/ns#"
   xmlns:rdf="http://www.w3.org/1999/02/22-rdf-syntax-ns#"
   xmlns:svg="http://www.w3.org/2000/svg"
   xmlns="http://www.w3.org/2000/svg"
   xmlns:sodipodi="http://sodipodi.sourceforge.net/DTD/sodipodi-0.dtd"
   xmlns:inkscape="http://www.inkscape.org/namespaces/inkscape"
   version="1.1"
   id="Layer_1"
   x="0px"
   y="0px"
   width="26.061px"
   height="26.062px"
   viewBox="0 0 26.061 26.062"
   enable-background="new 0 0 26.061 26.062"
   xml:space="preserve"
   inkscape:version="0.91 r13725"
   sodipodi:docname="youtube.svg"><metadata
     id="metadata9"><rdf:RDF><cc:Work
         rdf:about=""><dc:format>image/svg+xml</dc:format><dc:type
           rdf:resource="http://purl.org/dc/dcmitype/StillImage" /></cc:Work></rdf:RDF></metadata><defs
     id="defs7" /><sodipodi:namedview
     pagecolor="#ffffff"
     bordercolor="#666666"
     borderopacity="1"
     objecttolerance="10"
     gridtolerance="10"
     guidetolerance="10"
     inkscape:pageopacity="0"
     inkscape:pageshadow="2"
     inkscape:window-width="1366"
     inkscape:window-height="705"
     id="namedview5"
     showgrid="false"
     inkscape:zoom="9.0553295"
     inkscape:cx="-0.71830905"
     inkscape:cy="13.031"
     inkscape:window-x="-8"
     inkscape:window-y="-8"
     inkscape:window-maximized="1"
     inkscape:current-layer="Layer_1" /><path
     fill="#FF3C6D"
     d="M26.061,4.869v16.324c0,1.434-0.573,2.578-1.434,3.438c-0.858,0.859-2.004,1.432-3.436,1.432H4.869  c-1.432,0-2.577-0.572-3.437-1.432C0.574,23.771,0,22.627,0,21.193V4.869c0-1.433,0.574-2.577,1.433-3.436  C2.292,0.572,3.438,0,4.869,0h16.322c1.432,0,2.577,0.572,3.436,1.434C25.773,2.578,26.061,3.723,26.061,4.869z M22.623,17.756  c0-2.004,0-3.436-0.287-4.295c0-0.572-0.286-0.859-0.858-1.145c-0.286-0.288-0.859-0.574-1.146-0.574  c-1.433-0.286-3.724-0.286-6.87-0.286c-3.151,0-5.441,0-6.875,0.286c-0.572,0-0.858,0.286-1.432,0.574  c-0.286,0.285-0.573,0.857-0.858,1.145C4.01,14.32,4.01,16.039,4.01,17.756c0,2.007,0,3.438,0.287,4.299  c0,0.572,0.285,0.857,0.858,1.145c0.288,0.286,0.859,0.572,1.146,0.572c1.432,0.286,3.725,0.286,6.87,0.286  c3.154,0,5.442,0,6.875-0.286c0.572,0,0.858-0.286,1.146-0.572c0.286-0.287,0.573-0.859,0.858-1.145  C22.336,21.193,22.623,19.763,22.623,17.756z M9.166,13.461v1.146H7.732v7.159H6.587v-7.159H5.155v-1.146H9.166z M9.737,6.587  l1.433-4.868h-1.145l-0.859,3.15l-0.859-3.15H6.875c0,0.287,0.285,0.573,0.285,1.146C7.447,3.437,7.447,3.723,7.447,4.01  c0.285,1.146,0.573,2.005,0.859,2.577v3.437h1.145V6.587H9.737z M12.6,15.465v6.302h-1.146v-0.573  c-0.571,0.573-0.856,0.861-1.144,0.861c-0.285,0-0.573-0.288-0.573-0.574c0-0.287,0-0.574,0-0.859v-4.869h1.146v4.582  c0,0.287,0,0.287,0,0.572c0,0.287,0,0.287,0.287,0.287c0.284,0,0.573-0.287,0.573-0.572v-4.869H12.6V15.465z M14.608,8.02V5.729  c0-0.572,0-1.146-0.29-1.434c-0.285-0.285-0.856-0.572-1.429-0.572c-0.575,0-1.146,0.287-1.436,0.572  C11.17,4.583,11.17,5.156,11.17,5.729V8.02c0,0.572,0,1.146,0.284,1.432c0.289,0.286,0.86,0.572,1.436,0.572  c0.572,0,0.854-0.286,1.429-0.572C14.608,9.166,14.608,8.592,14.608,8.02z M13.462,5.729v2.577c0,0.573-0.291,0.86-0.572,0.86  c-0.29,0-0.575-0.287-0.575-0.86V5.729c0-0.572,0.285-0.859,0.575-0.859C13.171,4.869,13.462,5.156,13.462,5.729z M16.898,17.471  v2.578c0,0.572,0,0.857,0,1.145c0,0.573-0.573,0.573-0.862,0.573c-0.282,0-0.856-0.286-1.146-0.573v0.573h-1.146v-8.306h1.146v2.578  c0.29-0.574,0.864-0.574,1.146-0.574c0.572,0,0.862,0.287,0.862,0.574S16.898,16.898,16.898,17.471z M15.754,19.763v-2.579  c0-0.572-0.292-0.857-0.574-0.857c-0.29,0-0.29,0-0.571,0.285v3.723c0.281,0.287,0.281,0.287,0.571,0.287  C15.462,20.621,15.754,20.334,15.754,19.763z M17.755,10.023h1.145V3.723h-1.145v4.869c-0.286,0.287-0.573,0.574-0.573,0.574  c-0.283,0-0.283,0-0.283-0.287c0,0,0-0.287,0-0.573V3.723h-1.145v4.869c0,0.287,0,0.859,0,0.859c0,0.286,0.282,0.572,0.854,0.572  c0.29,0,0.862-0.286,1.433-0.857v0.857H17.755z M21.191,19.477L21.191,19.477c0,0.572,0,0.857,0,0.857c0,0.287,0,0.572-0.287,0.572  c-0.286,0.574-0.858,0.574-1.432,0.574s-1.146-0.287-1.432-0.574c-0.286-0.285-0.286-0.857-0.286-1.43v-2.293  c0-0.572,0-1.145,0.286-1.432s0.858-0.573,1.432-0.573s1.146,0.286,1.432,0.573c0.287,0.287,0.287,0.859,0.287,1.432v1.146h-2.292  v1.146c0,0.572,0.288,0.857,0.573,0.857c0.286,0,0.573-0.285,0.573-0.571l0,0v-0.286v-0.287h1.146V19.477z M18.899,17.756h1.146  v-0.572c0-0.572-0.287-0.857-0.573-0.857c-0.285,0-0.573,0.285-0.573,0.857V17.756z"
     id="path3"
     style="fill:#c2cae8;fill-opacity:1" /></svg>